<svg width="17.008pt" height="17.008pt" version="1.2" viewBox="0 0 17.008 17.008" xmlns="http://www.w3.org/2000/svg"><defs></defs><path d="m14.516 2.4883c-1.5391-1.5391-3.6641-2.4883-6.0117-2.4883-2.3477 0-4.4766 0.94922-6.0156 2.4883-1.5391 1.5391-2.4883 3.668-2.4883 6.0156s0.94922 4.4727 2.4883 6.0117 3.668 2.4922 6.0156 2.4922c2.3476 0 4.4726-0.95313 6.0117-2.4922 1.5391-1.5391 2.4922-3.6641 2.4922-6.0117s-0.95312-4.4766-2.4922-6.0156" fill="#f3731e"/><path d="m7.2031 8.082v-5.5312h2.6016v5.5312l-0.13282 2.7969h-2.3398zm-0.0508 5.0742c0-0.73437 0.55469-1.2695 1.3516-1.2695 0.79687 0 1.3476 0.53516 1.3476 1.2695 0 0.76563-0.55078 1.3008-1.3476 1.3008-0.79688 0-1.3516-0.53515-1.3516-1.3008" fill="#fff"/></svg>
