<svg width="10.528" height="368.47" version="1.1" viewBox="0 0 10.528 368.47" xml:space="preserve" xmlns="http://www.w3.org/2000/svg"><g transform="matrix(1.3333 0 0 -1.3333 -1124.8 882.38)" fill="#f3731e"><path d="m843.6 645.99v-7.896l7.896 7.895v7.896z"/><path d="m843.6 661.78v-7.896l7.896 7.896z"/><path d="m843.6 630.2v-7.896l7.896 7.895v7.896z"/><path d="m843.6 614.41v-7.896l7.896 7.895v7.896z"/><path d="m843.6 598.62v-7.896l7.896 7.895v7.896z"/><path d="m843.6 582.82v-7.896l7.896 7.895v7.896z"/><path d="m843.6 567.03v-7.896l7.896 7.895v7.897z"/><path d="m843.6 551.24v-7.896l7.896 7.895v7.896z"/><path d="m843.6 535.45v-7.896l7.896 7.895v7.896z"/><path d="m843.6 519.66v-7.896l7.896 7.895v7.897z"/><g transform="translate(843.6 503.87)"><path d="m0 0v-7.896l7.896 7.895v7.896z" fill="#f3731e"/></g><g transform="translate(843.6 488.07)"><path d="m0 0v-7.896l7.896 7.895v7.896z" fill="#f3731e"/></g><g transform="translate(843.6 472.28)"><path d="m0 0v-7.896l7.896 7.895v7.896z" fill="#f3731e"/></g><g transform="translate(843.6 456.49)"><path d="m0 0v-7.896l7.896 7.895v7.896z" fill="#f3731e"/></g><g transform="translate(843.6 440.7)"><path d="m0 0v-7.896l7.896 7.895v7.897z" fill="#f3731e"/></g><g transform="translate(843.6 424.91)"><path d="m0 0v-7.896l7.896 7.895v7.896z" fill="#f3731e"/></g><g transform="translate(843.6 409.12)"><path d="m0 0v-7.896l7.896 7.895v7.896z" fill="#f3731e"/></g><g transform="translate(843.6 393.32)"><path d="m0 0v-7.896l7.896 7.895v7.897z" fill="#f3731e"/></g></g></svg>
