<svg width="17.008pt" height="17.008pt" version="1.2" viewBox="0 0 17.008 17.008" xmlns="http://www.w3.org/2000/svg"><defs></defs><g transform="translate(-471.54 -612.3)"><path d="m472.25 620.81c0 4.2969 3.4961 7.793 7.793 7.793 2.0039 0 3.832-0.75781 5.2148-2.0039l-11.004-11.004c-1.2461 1.3828-2.0039 3.2109-2.0039 5.2148" fill="#fff"/><path d="m480.05 613.01c-2.0039 0-3.832 0.75781-5.2109 2.0039l11.004 11.004c1.2422-1.3828 2.0039-3.2109 2.0039-5.2109 0-4.3008-3.5-7.7969-7.7969-7.7969" fill="#fff"/><path d="m478.94 626.71c0.0195 4e-3 0.043 4e-3 0.0625 4e-3 0.22266 0 0.41797-0.16015 0.44922-0.38672l0.25781-1.8008 1.1367-1.1367 0.25781 1.1719c0.0117 0.0547 0.043 0.14062 0.0742 0.19141 0.0273 0.0508 0.0898 0.11328 0.22656 0.18359l1.8086 0.77734c0.16797 0.0742 0.35937 0.0352 0.48828-0.0859l-1.2148-1.2109-0.53515-0.23047-0.0899-0.39453-2.0195-2.0195 0.24219 1.0938-1.125 1.1289c-0.0664 0.0664-0.11328 0.15625-0.12891 0.25391l-0.27734 1.9492c-0.0352 0.24609 0.13672 0.47656 0.38672 0.51172" fill="#424245"/><path d="m478.65 621.11-0.96094 0.66015c-0.17578 0.1211-0.21875 0.36329-0.10156 0.53907 0.0781 0.10547 0.19922 0.16406 0.32031 0.16406 0.0742 0 0.15234-0.0234 0.21875-0.0664l1.043-0.71875c0.0508-0.0391 0.0976-0.0859 0.125-0.14453l0.10547-0.20703-0.57422-0.57422z" fill="#424245"/><path d="m474.28 616.21c-0.0937 0.1211-0.1875 0.2461-0.27344 0.3711l0.65235 8e-3z" fill="#424245"/><path d="m475.3 621.31c0 0.1875-0.15234 0.33985-0.33593 0.33985l-2.2422-0.0234c0.23047 2.0938 1.3438 3.9258 2.9609 5.1172h0.46484v-8.668l-0.84766-0.84766z" fill="#424245"/><path d="m483.91 626.74h0.5c0.0781-0.0547 0.15234-0.11328 0.23047-0.17578l-0.73047-0.72657z" fill="#424245"/><path d="m477.21 627.61h5.6524c0.28906-0.12109 0.57031-0.26172 0.84375-0.41797h-7.3398c0.26953 0.15625 0.55078 0.29688 0.84375 0.41797" fill="#424245"/><path d="m479.96 617.61c-0.41407 0.0352-0.72657 0.39844-0.69532 0.8164 0.0352 0.41797 0.39844 0.72657 0.81641 0.69532 0.41797-0.0312 0.73047-0.39844 0.69531-0.8125-0.0312-0.41797-0.39843-0.73047-0.8164-0.69922" fill="#424245"/><path d="m481.84 621.41 1.0391 1.043c8e-3 -0.0508 4e-3 -0.10156-8e-3 -0.15234l-0.36328-1.3789c-0.0195-0.0664-0.0547-0.125-0.10156-0.17187l-1.1836-1.1875c-0.0312-0.0274-0.0625-0.0508-0.0937-0.0664-0.0664-0.0391-0.14453-0.0625-0.22656-0.0625h-1.043l1.3242 1.3242-0.0391-0.17969 0.64453 0.64453z" fill="#424245"/><path d="m485.09 621.62c-0.18359 0-0.33593-0.15234-0.33593-0.33593v-4.3789c0-0.18359 0.15234-0.33594 0.33593-0.33594l0.98438 8e-3c-0.21094-0.30078-0.44531-0.58984-0.70313-0.85546h-1.4648v7.7578l1.9062 1.9062c0.85937-1.082 1.3945-2.3789 1.5508-3.7461z" fill="#424245"/><path d="m484.92 615.29c-0.16796-0.14844-0.34375-0.28906-0.52343-0.42187h-8.7109c-0.0742 0.0547-0.15234 0.11328-0.22266 0.16797l0.25 0.2539z" fill="#424245"/><path d="m485.84 626.02-11.004-11.004c1.3828-1.2461 3.2109-2.0039 5.2109-2.0039 4.3008 0 7.7969 3.4961 7.7969 7.7969 0 2-0.76172 3.8281-2.0039 5.2109m-13.586-5.2109c0-2.0039 0.75781-3.832 2.0039-5.2148l11.004 11.004c-1.3828 1.2461-3.2109 2.0039-5.2148 2.0039-4.2969 0-7.793-3.4961-7.793-7.793m7.793-8.5039c-4.6953 0-8.5039 3.8086-8.5039 8.5039 0 4.6953 3.8086 8.5039 8.5039 8.5039 4.6953 0 8.5039-3.8086 8.5039-8.5039 0-4.6953-3.8086-8.5039-8.5039-8.5039" fill="#cf1e2e"/></g></svg>
