<svg width="22.677pt" height="22.677pt" version="1.2" viewBox="0 0 22.677 22.677" xmlns="http://www.w3.org/2000/svg"><path transform="scale(.75)" d="m16.283 0v30.236h13.957v-30.236h-13.957zm3.2188 2.3867h7.4688c0.51047 0 0.91016 0.4357 0.91016 0.90625v12.037c0 0.50767-0.39969 0.90625-0.91016 0.90625h-7.4688c-0.51047 0-0.91016-0.39858-0.91016-0.90625v-12.037c0-0.47148 0.39969-0.90625 0.91016-0.90625z" fill="#fff" stroke-width="1.3333"/><path transform="scale(.75)" d="m-0.0097656 0v30.236h13.957v-30.236h-13.957zm3.2617 2.3867h7.4336c0.51047 0 0.94141 0.4357 0.94141 0.90625v12.037c0 0.50767-0.43558 0.90625-0.94141 0.90625h-7.4336c-0.54759 0-0.94336-0.39858-0.94336-0.90625v-12.037c0-0.47148 0.39948-0.90625 0.94336-0.90625z" fill="#fff" stroke-width="1.3333"/></svg>
