<svg width="12.929pt" height="12.926pt" version="1.2" viewBox="0 0 12.929 12.926" xmlns="http://www.w3.org/2000/svg"><defs></defs><path d="m11.449 0-1.856 1.856c0.51953 0.5039 0.91065 1.1372 1.1177 1.8442l2.2178-2.2236v-1.4766zm-5.5825 1.3433c-1.8828 0-3.4844 1.1909-4.0664 2.8433-0.0391 0.10937-0.073714 0.22217-0.10107 0.33545l0.80859 0.27832c0.10938-0.46875 0.31592-0.90331 0.60498-1.2744 0.17188-0.22265 0.37061-0.42481 0.59326-0.60059 0.58985-0.46875 1.3442-0.74707 2.1606-0.74707h0.030762c0.0469 0 0.09809 3.945e-4 0.14502 0.0044 0.0312 0 0.057661 0.00439 0.084961 0.00439 0.0312 4e-3 0.059621 0.00332 0.09082 0.00733 0.035201 4e-3 0.065914 0.00802 0.10107 0.011719 0.0234 4e-3 0.046913 0.00879 0.070312 0.00879 0.039098 8e-3 0.07371 0.015143 0.11279 0.019043 0.0156 4e-3 0.03606 0.00802 0.055665 0.011719 0.039098 8e-3 0.081017 0.019932 0.12012 0.027832 0.0156 4e-3 0.032145 0.00733 0.043942 0.00733 0.042997 0.0117 0.085906 0.023851 0.12891 0.03955 0.0117 0 0.023355 0.00332 0.035152 0.00733 0.046898 0.0156 0.089311 0.027375 0.13623 0.046875 8e-3 0 0.015637 0.00479 0.023437 0.00879 0.046898 0.0156 0.093221 0.035669 0.13623 0.051269 8e-3 4e-3 0.01221 0.00332 0.01611 0.00733 0.050797 0.0195 0.098189 0.039588 0.14502 0.062988 0.00398 0 0.00735 0.00293 0.00735 0.00293 0.050797 0.0234 0.098189 0.046913 0.14502 0.070312l0.00443 0.0044c0.29297 0.15234 0.5581 0.34766 0.79248 0.57422 0.53125 0.51562 0.89453 1.2002 0.99609 1.9658 8e-3 0.0664 0.015142 0.13184 0.019042 0.20215v0.023437c8e-3 0.0703 0.00879 0.14063 0.00879 0.21094 0 0.0664-3.945e-4 0.12939-0.00442 0.19189-0.0234 0.38281-0.10986 0.74951-0.25049 1.0854-0.0234 0.054697-0.05034 0.11377-0.077637 0.16846h0.00879c-0.039097 0.0859-0.078582 0.16796-0.12158 0.24609-0.042998 0.082-0.085907 0.15576-0.12891 0.22998-1.0859 1.7227-0.67578 4.1763-2.8477 4.1763-0.23437 0-0.46094-0.04349-0.66797-0.12158-0.0312-0.0117-0.059126-0.02335-0.086426-0.03515-0.23438-0.0977-0.71484-0.51562-0.71484-0.51562l-0.69435 0.69871-0.0044 0.0044c0.0352 0.0312 0.45313 0.41503 0.65625 0.53613 0.44922 0.27343 0.96485 0.42188 1.5117 0.42188 1.3984 0 2.0503-0.57909 2.4331-1.3799 0.0156-0.0273 0.026782-0.05376 0.04248-0.08496 0.035198-0.0859 0.074198-0.17675 0.10547-0.2666 0.0117-0.0312 0.024818-0.06255 0.036623-0.09375 0.0977-0.27734 0.1748-0.56934 0.24902-0.87012 0.082-0.33203 0.16406-0.66894 0.25781-0.99316 0.0234-0.066397 0.043492-0.12842 0.062993-0.19482 0.0117-0.0312 0.019065-0.06255 0.030757-0.09375 0.042998-0.125 0.094189-0.24951 0.14502-0.37061 0.0117-0.0312 0.027848-0.059617 0.039548-0.090821 0.054697-0.11719 0.1167-0.23339 0.18311-0.34277 0.058598-0.0937 0.11377-0.18798 0.16846-0.28564 0.0234-0.050797 0.049845-0.10108 0.073245-0.14795 0.0273-0.050797 0.046912-0.10156 0.070312-0.15234 8e-3 -0.0156 0.015637-0.035572 0.023437-0.05127 0.00397-0.00397 0.00442-0.00802 0.00442-0.011722 0.00398-0.00398 0.0033-0.00802 0.00735-0.011723 0.054697-0.1289 0.10644-0.26611 0.14941-0.40283 0.00398-0.00398 0.0033-0.011242 0.00735-0.019043 0.00398-0.0117 0.00802-0.023355 0.011722-0.035152 0.00398-0.0117 0.00879-0.02385 0.00879-0.039555 0.043-0.13281 0.07372-0.26904 0.10107-0.40576 0.0156-0.0898 0.03165-0.18311 0.03955-0.27686 0.0117-0.0937 0.01954-0.18798 0.02344-0.28564 0-0.0469 0.0029-0.093705 0.0029-0.14062 0-0.043-0.0029-0.085412-0.0029-0.12451 0-0.0664-0.0048-0.125-0.0088-0.1875v-0.00149c-4e-3 -0.0195-0.0044-0.034205-0.0044-0.049805-4e-3 -0.0586-0.01124-0.11718-0.01904-0.17578 0-0.0156-0.0044-0.031175-0.0044-0.046875-8e-3 -0.043-0.01124-0.086877-0.01904-0.12598-4e-3 -0.0274-8e-3 -0.050337-0.01172-0.077637-8e-3 -0.043-0.02003-0.086391-0.02783-0.1333-8e-3 -0.0352-0.01564-0.069814-0.02344-0.10107-8e-3 -0.0234-0.01124-0.051307-0.01904-0.074707-8e-3 -0.0312-0.02003-0.06148-0.02783-0.09668-0.20708-0.70702-0.5982-1.3403-1.1177-1.8442-0.28906-0.28125-0.62108-0.51953-0.98438-0.71484h-0.00293c-0.054697-0.0312-0.11719-0.059125-0.17578-0.086426-0.00398-4e-3 -0.0048-0.00293-0.00879-0.00293-0.058623-0.027398-0.1172-0.055699-0.1758-0.079099-0.00397 0-0.00802-0.00293-0.011722-0.00293-0.058598-0.0273-0.11718-0.046913-0.17578-0.070312-8e-3 0-0.011242-0.00479-0.019042-0.00879-0.054698-0.0156-0.11377-0.0347-0.16846-0.054199-0.0117-4e-3 -0.019065-0.00879-0.030765-0.00879-0.050798-0.0156-0.10499-0.031175-0.15967-0.046875-0.0156-4e-3 -0.027848-0.00802-0.039555-0.011719-0.054697-0.0117-0.10595-0.023357-0.15674-0.035156-0.0195 0-0.034103-0.00733-0.049808-0.00733-0.050797-0.0117-0.10156-0.019932-0.15234-0.027832-0.0195-4e-3 -0.039097-0.00802-0.058598-0.011719-0.046897-8e-3 -0.09418-0.012213-0.14502-0.016113-0.0234-4e-3 -0.046912-0.00802-0.070312-0.011719-0.046898-4e-3 -0.097109-0.00733-0.14795-0.00733-0.0195-4e-3 -0.043983-0.00332-0.067383-0.00733-0.0586 0-0.12061-0.00439-0.18311-0.00439zm0 1.8018c-1.0117 0-1.8789 0.59766-2.2617 1.4531l0.59326 0.35889c0.25-0.66406 0.90283-1.1396 1.6685-1.1396 0.98047 0 1.7769 0.78077 1.7769 1.7417 0 0.46094-0.18262 0.88281-0.4834 1.1953l0.59326 0.35889c0.36328-0.42187 0.57861-0.96435 0.57861-1.5542 0-1.332-1.106-2.4141-2.4653-2.4141zm-1.9526 4.2817-3.9141 4.0225v1.4766h1.4795l3.9419-4.0503z" fill="#fff"/></svg>
