<?xml version="1.0" encoding="UTF-8" standalone="no"?>
<svg
   width="15.43057pt"
   height="15.43057pt"
   viewBox="0 0 15.430569 15.430569"
   version="1.2"
   id="svg68619"
   sodipodi:docname="hearing-loop.svg"
   inkscape:version="1.1 (c4e8f9e, 2021-05-24)"
   xmlns:inkscape="http://www.inkscape.org/namespaces/inkscape"
   xmlns:sodipodi="http://sodipodi.sourceforge.net/DTD/sodipodi-0.dtd"
   xmlns="http://www.w3.org/2000/svg"
   xmlns:svg="http://www.w3.org/2000/svg">
  <sodipodi:namedview
     id="namedview68621"
     pagecolor="#ffffff"
     bordercolor="#999999"
     borderopacity="1"
     inkscape:pageshadow="0"
     inkscape:pageopacity="0"
     inkscape:pagecheckerboard="0"
     inkscape:document-units="pt"
     showgrid="false"
     inkscape:zoom="14.265505"
     inkscape:cx="9.8489331"
     inkscape:cy="10.269528"
     inkscape:window-width="1440"
     inkscape:window-height="847"
     inkscape:window-x="0"
     inkscape:window-y="25"
     inkscape:window-maximized="1"
     inkscape:current-layer="svg68619" />
  <defs
     id="defs63698">
    <clipPath
       id="clip2">
      <path
         d="M 0,0 H 1190.5508 V 109 H 0 Z m 0,0"
         id="path63668" />
    </clipPath>
    <clipPath
       id="clip3">
      <path
         d="M 378.42578,74 H 386 v 10 h -7.57422 z m 0,0"
         id="path63671" />
    </clipPath>
    <clipPath
       id="clip6">
      <path
         d="M 42.832031,799.28516 H 51 V 808 h -8.167969 z m 0,0"
         id="path63680" />
    </clipPath>
    <clipPath
       id="clip7">
      <path
         d="m 52,799.28516 h 9 V 808 h -9 z m 0,0"
         id="path63683" />
    </clipPath>
    <clipPath
       id="clip8">
      <path
         d="m 62,799.28516 h 9 V 808 h -9 z m 0,0"
         id="path63686" />
    </clipPath>
    <clipPath
       id="clip9">
      <path
         d="M 42.832031,809 H 51 v 9 h -8.167969 z m 0,0"
         id="path63689" />
    </clipPath>
    <clipPath
       id="clip10">
      <path
         d="m 200.79297,799.95312 h 17.40234 v 17.40235 h -17.40234 z m 0,0"
         id="path63692" />
    </clipPath>
    <clipPath
       id="clip11">
      <path
         d="m 176.69922,799.95312 h 17.40234 v 17.40235 h -17.40234 z m 0,0"
         id="path63695" />
    </clipPath>
  </defs>
  <path
     id="path66168"
     style="fill:#ffffff;fill-opacity:1;fill-rule:nonzero;stroke:none;stroke-width:1.20969"
     d="M 0 0 L 0 20.574219 L 20.574219 20.574219 L 20.574219 0 L 0 0 z M 16.933594 1.671875 L 18.90625 1.671875 L 18.90625 3.640625 L 15.949219 6.6054688 C 15.673179 5.6627621 15.151691 4.818351 14.458984 4.1464844 L 16.933594 1.671875 z M 9.4902344 3.4628906 L 9.5371094 3.4628906 C 9.6204427 3.4628906 9.7031167 3.46875 9.78125 3.46875 C 9.81245 3.4740833 9.8450938 3.4731823 9.8710938 3.4785156 C 9.9388803 3.4785156 10.005826 3.482948 10.068359 3.4882812 C 10.099559 3.4932147 10.130909 3.498573 10.162109 3.5039062 C 10.229896 3.5091064 10.292935 3.514724 10.355469 3.5253906 C 10.381469 3.530324 10.407594 3.5356823 10.433594 3.5410156 C 10.5013 3.551549 10.568985 3.562525 10.636719 3.578125 C 10.657652 3.578125 10.677125 3.5878906 10.703125 3.5878906 C 10.770845 3.603624 10.839176 3.6191656 10.912109 3.6347656 C 10.927709 3.639699 10.944044 3.6450573 10.964844 3.6503906 C 11.03775 3.671324 11.110001 3.6920906 11.177734 3.7128906 C 11.193334 3.7128906 11.20315 3.719276 11.21875 3.7246094 C 11.29167 3.7506094 11.370426 3.776075 11.443359 3.796875 C 11.453759 3.8022083 11.458083 3.8085938 11.46875 3.8085938 C 11.546883 3.8397938 11.624992 3.8659438 11.703125 3.9023438 C 11.708058 3.9023437 11.713417 3.90625 11.71875 3.90625 C 11.796883 3.93745 11.874992 3.9751854 11.953125 4.0117188 C 11.958458 4.0117187 11.95951 4.0102917 11.964844 4.015625 C 12.042964 4.052025 12.126285 4.0892594 12.199219 4.1308594 L 12.203125 4.1308594 C 12.687512 4.3912727 13.130212 4.7089844 13.515625 5.0839844 C 14.208332 5.7558644 14.729819 6.6002621 15.005859 7.5429688 C 15.016259 7.589902 15.032302 7.630275 15.042969 7.671875 C 15.053369 7.703075 15.057693 7.7402844 15.068359 7.7714844 C 15.078759 7.8131644 15.088943 7.8593167 15.099609 7.90625 C 15.110009 7.9687967 15.126052 8.026651 15.136719 8.0839844 C 15.141652 8.1203844 15.14701 8.1509667 15.152344 8.1875 C 15.162744 8.2396333 15.167068 8.2981353 15.177734 8.3554688 C 15.177734 8.376402 15.183594 8.3971686 15.183594 8.4179688 C 15.193994 8.496102 15.203651 8.5742103 15.208984 8.6523438 C 15.208984 8.6731436 15.20951 8.69275 15.214844 8.71875 L 15.214844 8.7207031 C 15.220177 8.8040365 15.226562 8.8821698 15.226562 8.9707031 C 15.226562 9.0228365 15.230469 9.0793853 15.230469 9.1367188 C 15.230469 9.1992787 15.226562 9.2616853 15.226562 9.3242188 C 15.221364 9.4544321 15.210913 9.5801448 15.195312 9.7050781 C 15.184779 9.8300781 15.163378 9.9544852 15.142578 10.074219 C 15.106098 10.256512 15.065147 10.438154 15.007812 10.615234 C 15.007812 10.636168 15.001427 10.652369 14.996094 10.667969 C 14.99116 10.683702 14.985802 10.699244 14.980469 10.714844 C 14.975135 10.725244 14.976036 10.734901 14.970703 10.740234 C 14.91341 10.922528 14.844418 11.105477 14.771484 11.277344 C 14.766151 11.282277 14.767052 11.287635 14.761719 11.292969 C 14.761719 11.297902 14.761193 11.30326 14.755859 11.308594 C 14.745459 11.329527 14.735276 11.356153 14.724609 11.376953 C 14.693409 11.44466 14.667259 11.512345 14.630859 11.580078 C 14.599659 11.642571 14.564403 11.70961 14.533203 11.777344 C 14.460283 11.907557 14.386727 12.03327 14.308594 12.158203 C 14.220047 12.304043 14.137386 12.458981 14.064453 12.615234 C 14.048853 12.656834 14.027319 12.694728 14.011719 12.736328 C 13.943945 12.897795 13.875693 13.063802 13.818359 13.230469 C 13.802759 13.272069 13.792944 13.313869 13.777344 13.355469 C 13.751344 13.444002 13.724559 13.526701 13.693359 13.615234 C 13.568359 14.047528 13.458943 14.496746 13.349609 14.939453 C 13.250649 15.340493 13.147845 15.729823 13.017578 16.099609 C 13.001845 16.141209 12.98435 16.183009 12.96875 16.224609 C 12.927057 16.344409 12.875058 16.465545 12.828125 16.580078 C 12.807192 16.621678 12.792284 16.656959 12.771484 16.693359 C 12.261058 17.761079 11.39193 18.533203 9.5273438 18.533203 C 8.7981836 18.533203 8.1106788 18.335276 7.5117188 17.970703 C 7.2408921 17.809236 6.6836521 17.297459 6.6367188 17.255859 L 6.6425781 17.25 L 7.5683594 16.318359 C 7.5683594 16.318359 8.2089777 16.875593 8.5214844 17.005859 C 8.5578844 17.021593 8.5951186 17.037134 8.6367188 17.052734 C 8.9127588 17.156854 9.2148503 17.214844 9.5273438 17.214844 C 12.423184 17.214844 11.876299 13.943351 13.324219 11.646484 C 13.381552 11.547524 13.43876 11.449177 13.496094 11.339844 C 13.553427 11.23567 13.60607 11.126252 13.658203 11.011719 L 13.646484 11.011719 C 13.682884 10.938799 13.7188 10.860043 13.75 10.787109 C 13.937507 10.339189 14.052784 9.850257 14.083984 9.3398438 C 14.089318 9.2565103 14.089844 9.1725177 14.089844 9.0839844 C 14.089844 8.9902377 14.088792 8.8964677 14.078125 8.8027344 L 14.078125 8.7714844 C 14.072925 8.6777377 14.063401 8.5904865 14.052734 8.5019531 C 13.917321 7.4811265 13.432943 6.5683527 12.724609 5.8808594 C 12.412103 5.5787794 12.058595 5.3183544 11.667969 5.1152344 L 11.662109 5.109375 C 11.599669 5.078175 11.536483 5.046825 11.46875 5.015625 C 11.46875 5.015625 11.464318 5.0117188 11.458984 5.0117188 C 11.396544 4.9805187 11.333358 4.9537344 11.265625 4.9277344 C 11.260425 4.922401 11.254807 4.9233021 11.244141 4.9179688 C 11.186794 4.8971686 11.125033 4.8704094 11.0625 4.8496094 C 11.0521 4.844276 11.041917 4.8378906 11.03125 4.8378906 C 10.96869 4.8118906 10.912143 4.7961906 10.849609 4.7753906 C 10.833876 4.7700573 10.818334 4.765625 10.802734 4.765625 C 10.745401 4.7446917 10.688193 4.7284906 10.630859 4.7128906 C 10.615126 4.7128906 10.593066 4.7084583 10.572266 4.703125 C 10.520132 4.6925917 10.464243 4.6766823 10.412109 4.6660156 C 10.385976 4.6610823 10.358691 4.655724 10.337891 4.6503906 C 10.285784 4.6451906 10.239633 4.6356667 10.1875 4.625 C 10.1563 4.625 10.12495 4.6186146 10.09375 4.6132812 C 10.04687 4.6083479 10.005918 4.6029896 9.9589844 4.5976562 C 9.9173844 4.592323 9.8794906 4.593224 9.8378906 4.5878906 C 9.8014906 4.5878906 9.7662094 4.5820312 9.7246094 4.5820312 C 9.662036 4.576698 9.5937833 4.5761719 9.53125 4.5761719 L 9.4902344 4.5761719 C 8.4016877 4.5761719 7.3958417 4.9472656 6.609375 5.5722656 C 6.3125083 5.806639 6.0475327 6.0761802 5.8183594 6.3730469 C 5.432946 6.8678469 5.1575587 7.4472656 5.0117188 8.0722656 L 3.9335938 7.7011719 C 3.9700738 7.5501319 4.016226 7.3997329 4.0683594 7.2539062 C 4.8443994 5.0507864 6.979821 3.4628906 9.4902344 3.4628906 z M 9.4902344 5.8652344 C 11.302728 5.8652344 12.777344 7.3079444 12.777344 9.0839844 C 12.777344 9.870451 12.490233 10.593757 12.005859 11.15625 L 11.214844 10.677734 C 11.615884 10.261068 11.859375 9.698571 11.859375 9.0839844 C 11.859375 7.8027444 10.797528 6.7617188 9.4902344 6.7617188 C 8.4693944 6.7617186 7.5989583 7.3958367 7.265625 8.28125 L 6.4746094 7.8027344 C 6.9850227 6.6621077 8.1412744 5.8652344 9.4902344 5.8652344 z M 6.8867188 11.574219 L 8.8964844 13.505859 L 3.640625 18.90625 L 1.6679688 18.90625 L 1.6679688 16.9375 L 6.8867188 11.574219 z "
     transform="scale(0.75)" />
</svg>
