<svg width="17.008pt" height="17.008pt" version="1.2" viewBox="0 0 17.008 17.008" xmlns="http://www.w3.org/2000/svg"><defs></defs><path d="m9.1641 4.9609c-0.64453 0-1.1758-0.51563-1.1758-1.1758 0-0.64453 0.53125-1.1758 1.1758-1.1758s1.1758 0.53125 1.1758 1.1758c0 0.66015-0.53125 1.1758-1.1758 1.1758m0.24219 9.2617c-0.28906 0.11328-0.74219 0.17578-1.1445 0.17578-1.3828 0-2.1875-0.69141-1.8516-2.3008l1.1602-5.6367h2.0781l-1.1133 5.3438c-0.1289 0.62891-0.0312 0.91797 0.62891 0.91797 0.30469 0 0.56641-0.0469 0.75781-0.10938zm-0.90235-14.223c-4.7031 0-8.5039 3.8047-8.5039 8.5039 0 4.7031 3.8008 8.5039 8.5039 8.5039 4.7031 0 8.5039-3.8008 8.5039-8.5039 0-4.6992-3.8008-8.5039-8.5039-8.5039" fill="#424245"/><path d="m8.5352 11.805 1.1133-5.3438h-2.0781l-1.1602 5.6367c-0.33593 1.6094 0.46875 2.3047 1.8516 2.3047 0.40234 0 0.85547-0.0664 1.1445-0.17969l0.51562-1.6094c-0.19531 0.0625-0.45312 0.10938-0.75781 0.10938-0.66016 0-0.75781-0.28906-0.62891-0.91797" fill="#fff"/><path d="m9.1641 2.6094c-0.64453 0-1.1758 0.53125-1.1758 1.1758 0 0.66015 0.53125 1.1758 1.1758 1.1758s1.1758-0.51563 1.1758-1.1758c0-0.64453-0.53125-1.1758-1.1758-1.1758" fill="#fff"/></svg>
