<svg width="23.984" height="23.984" version="1.1" viewBox="-7748 15507 23.984 23.984" xmlns="http://www.w3.org/2000/svg"><path d="m-7736 15507a11.992 11.992 0 1 1-11.992 11.992 11.992 11.992 0 0 1 11.992-11.992z" fill="#0072ce"/><path d="m-7740.5 15511a1.609 1.609 0 0 0-1.5997 1.599v-0.04l-0.6093 8.07a1.609 1.609 0 0 0 1.6015 1.6h2.5508l-0.6836 1.068h-2.207a0.2285 0.2285 0 0 0 0 0.455h1.8984l-0.6836 0.954h-2.5097a0.45703 0.45703 0 0 0 0 0.914h1.9004l-0.6465 0.914a0.17 0.17 0 0 0 0 0.189 0.209 0.209 0 0 0 0.1894 0.115h1.3321a0.209 0.209 0 0 0 0.1894-0.115l0.457-1.099h6.7012l0.4551 1.099a0.209 0.209 0 0 0 0.1914 0.115h1.373c0.076 0 0.1524-0.04 0.1524-0.115a0.17 0.17 0 0 0 0-0.189l-0.6465-0.914h1.9004a0.45703 0.45703 0 0 0 0-0.914h-2.5098l-0.6464-0.989h1.9003a0.22852 0.22852 0 0 0 0-0.457h-2.207l-0.7246-0.99h2.5527a1.609 1.609 0 0 0 1.5996-1.601l-0.6093-8.108v0.04a1.609 1.609 0 0 0-1.5996-1.599zm1.2597 2.136h6.5488a0.764 0.764 0 0 1 0.7598 0.762l0.2285 2.893v0.04a0.764 0.764 0 0 1-0.7617 0.761h-7a0.773 0.773 0 0 1-0.7598-0.8l0.2266-2.893a0.764 0.764 0 0 1 0.7617-0.762zm0.1133 0.873c0 0.19-0.1895 2.399-0.1895 2.664h3.1231v-2.664zm3.3906 0v2.664h3.1211c-0.038-0.265-0.1914-2.474-0.1914-2.664zm3.7676 5.409a0.544 0.544 0 0 1 0.5332 0.529 0.533 0.533 0 1 1-0.5332-0.533zm-1.8223 0.152a0.533 0.533 0 0 1 0.9082 0.377 0.5 0.5 0 0 1-0.5332 0.533 0.533 0.533 0 0 1-0.375-0.91zm-6.5488 0a0.533 0.533 0 0 1 0.9102 0.377 0.544 0.544 0 0 1-0.5332 0.529 0.533 0.533 0 0 1-0.377-0.91zm2.1621 0a0.533 0.533 0 0 1-0.3769 0.91 0.544 0.544 0 0 1-0.5313-0.535 0.533 0.533 0 0 1 0.9082-0.375zm0.1973 2.699h4.0742l0.377 1.027h-4.8692zm-0.6113 1.447h5.2148l0.3828 0.989h-5.9785z" fill="#fff"/></svg>